<svg version="1.1" xmlns="http://www.w3.org/2000/svg" xmlns:xlink="http://www.w3.org/1999/xlink" width="241.0986328125" height="112"><defs/><g><text fill="#eeeeee" stroke="none" font-family="Arial" font-size="24px" font-style="normal" font-weight="normal" text-decoration="none" x="0" y="0">UNREGISTERED</text><text fill="#eeeeee" stroke="none" font-family="Arial" font-size="24px" font-style="normal" font-weight="normal" text-decoration="none" x="0" y="30">UNREGISTERED</text><text fill="#eeeeee" stroke="none" font-family="Arial" font-size="24px" font-style="normal" font-weight="normal" text-decoration="none" x="0" y="60">UNREGISTERED</text><text fill="#eeeeee" stroke="none" font-family="Arial" font-size="24px" font-style="normal" font-weight="normal" text-decoration="none" x="0" y="90">UNREGISTERED</text><text fill="#eeeeee" stroke="none" font-family="Arial" font-size="24px" font-style="normal" font-weight="normal" text-decoration="none" x="200" y="0">UNREGISTERED</text><text fill="#eeeeee" stroke="none" font-family="Arial" font-size="24px" font-style="normal" font-weight="normal" text-decoration="none" x="200" y="30">UNREGISTERED</text><text fill="#eeeeee" stroke="none" font-family="Arial" font-size="24px" font-style="normal" font-weight="normal" text-decoration="none" x="200" y="60">UNREGISTERED</text><text fill="#eeeeee" stroke="none" font-family="Arial" font-size="24px" font-style="normal" font-weight="normal" text-decoration="none" x="200" y="90">UNREGISTERED</text><g transform="translate(-6,-10) scale(1,1)"><rect fill="#C0C0C0" stroke="none" x="27" y="27" width="95.72802734375" height="37" opacity="0.2"/></g><g transform="translate(-6,-10) scale(1,1)"><rect fill="#ffffff" stroke="none" x="20" y="20" width="95.72802734375" height="37"/></g><g transform="translate(-6,-10) scale(1,1)"><path fill="none" stroke="#000000" d="M 20 20 L 115.72802734375 20 L 115.72802734375 57 L 20 57 L 20 20 Z Z" stroke-miterlimit="10"/></g><g transform="translate(-6,-10) scale(1,1)"><g><path fill="none" stroke="none"/><text fill="#000000" stroke="none" font-family="Arial" font-size="13px" font-style="normal" font-weight="normal" text-decoration="none" x="24.5" y="36">«enumeration»</text></g></g><g transform="translate(-6,-10) scale(1,1)"><g><path fill="none" stroke="none"/><text fill="#000000" stroke="none" font-family="Arial" font-size="13px" font-style="normal" font-weight="bold" text-decoration="none" x="31.7490234375" y="51">ResultCode</text></g></g><g transform="translate(-6,-10) scale(1,1)"><rect fill="#C0C0C0" stroke="none" x="31.72265625" y="95" width="86.28271484375" height="24" opacity="0.2"/></g><g transform="translate(-6,-10) scale(1,1)"><rect fill="#ffffff" stroke="none" x="24.72265625" y="88" width="86.28271484375" height="24"/></g><g transform="translate(-6,-10) scale(1,1)"><path fill="none" stroke="#000000" d="M 24.72265625 88 L 111.00537109375 88 L 111.00537109375 112 L 24.72265625 112 L 24.72265625 88 Z Z" stroke-miterlimit="10"/></g><g transform="translate(-6,-10) scale(1,1)"><g><path fill="none" stroke="none"/><text fill="#000000" stroke="none" font-family="Arial" font-size="13px" font-style="normal" font-weight="bold" text-decoration="none" x="29.22265625" y="106">ResultModel</text></g></g><g transform="translate(-6,-10) scale(1,1)"><rect fill="#C0C0C0" stroke="none" x="153.72802734375" y="33.5" width="90.37060546875" height="24" opacity="0.2"/></g><g transform="translate(-6,-10) scale(1,1)"><rect fill="#ffffff" stroke="none" x="146.72802734375" y="26.5" width="90.37060546875" height="24"/></g><g transform="translate(-6,-10) scale(1,1)"><path fill="none" stroke="#000000" d="M 146.72802734375 26.5 L 237.0986328125 26.5 L 237.0986328125 50.5 L 146.72802734375 50.5 L 146.72802734375 26.5 Z Z" stroke-miterlimit="10"/></g><g transform="translate(-6,-10) scale(1,1)"><g><path fill="none" stroke="none"/><text fill="#000000" stroke="none" font-family="Arial" font-size="13px" font-style="normal" font-weight="bold" text-decoration="none" x="151.22802734375" y="44.5">TableColumn</text></g></g><g transform="translate(-6,-10) scale(1,1)"><path fill="none" stroke="#000000" d="M 67 87 Q 68 73 68 58" stroke-miterlimit="10"/></g><g transform="translate(-6,-10) scale(1,1)"><path fill="none" stroke="#000000" d="M 72.20951775601598 68.16267485762415 L 68 58 L 63.790482243984016 68.16267485762415" stroke-miterlimit="10"/></g><g transform="translate(-6,-10) scale(1,1)"><g><path fill="none" stroke="none"/><text fill="#000000" stroke="none" font-family="Arial" font-size="13px" font-style="normal" font-weight="normal" text-decoration="none" x="15.5" y="88">+ResultCode</text></g></g></g></svg>