<svg version="1.1" xmlns="http://www.w3.org/2000/svg" xmlns:xlink="http://www.w3.org/1999/xlink" width="180" height="188"><defs/><g><text fill="#eeeeee" stroke="none" font-family="Arial" font-size="24px" font-style="normal" font-weight="normal" text-decoration="none" x="0" y="0">UNREGISTERED</text><text fill="#eeeeee" stroke="none" font-family="Arial" font-size="24px" font-style="normal" font-weight="normal" text-decoration="none" x="0" y="30">UNREGISTERED</text><text fill="#eeeeee" stroke="none" font-family="Arial" font-size="24px" font-style="normal" font-weight="normal" text-decoration="none" x="0" y="60">UNREGISTERED</text><text fill="#eeeeee" stroke="none" font-family="Arial" font-size="24px" font-style="normal" font-weight="normal" text-decoration="none" x="0" y="90">UNREGISTERED</text><text fill="#eeeeee" stroke="none" font-family="Arial" font-size="24px" font-style="normal" font-weight="normal" text-decoration="none" x="0" y="120">UNREGISTERED</text><text fill="#eeeeee" stroke="none" font-family="Arial" font-size="24px" font-style="normal" font-weight="normal" text-decoration="none" x="0" y="150">UNREGISTERED</text><text fill="#eeeeee" stroke="none" font-family="Arial" font-size="24px" font-style="normal" font-weight="normal" text-decoration="none" x="0" y="180">UNREGISTERED</text><g transform="translate(-158,-230) scale(1,1)"><rect fill="#C0C0C0" stroke="none" x="175" y="247" width="160" height="168" opacity="0.2"/></g><g transform="translate(-158,-230) scale(1,1)"><rect fill="#ffffff" stroke="none" x="168" y="240" width="160" height="168"/></g><g transform="translate(-158,-230) scale(1,1)"><path fill="none" stroke="#000000" d="M 168 240 L 328 240 L 328 408 L 168 408 L 168 240 Z Z" stroke-miterlimit="10"/></g><g transform="translate(-158,-230) scale(1,1)"><path fill="none" stroke="#000000" d="M 168 265 L 328 265" stroke-miterlimit="10"/></g><g transform="translate(-158,-230) scale(1,1)"><path fill="none" stroke="#000000" d="M 168 333 L 328 333" stroke-miterlimit="10"/></g><g transform="translate(-158,-230) scale(1,1)"><g><path fill="none" stroke="none"/><text fill="#000000" stroke="none" font-family="Arial" font-size="13px" font-style="normal" font-weight="bold" text-decoration="none" x="214.405029296875" y="257.7099609375">BaseEntity</text></g></g><g transform="translate(-158,-230) scale(1,1)"><g><path fill="none" stroke="none"/><text fill="#000000" stroke="none" font-family="Arial" font-size="13px" font-style="normal" font-weight="normal" text-decoration="none" x="173" y="280.7099609375">+CreatedAt: DateTime</text></g></g><g transform="translate(-158,-230) scale(1,1)"><g><path fill="none" stroke="none"/><text fill="#000000" stroke="none" font-family="Arial" font-size="13px" font-style="normal" font-weight="normal" text-decoration="none" x="173" y="295.7099609375">+CreatedBy: Integer</text></g></g><g transform="translate(-158,-230) scale(1,1)"><g><path fill="none" stroke="none"/><text fill="#000000" stroke="none" font-family="Arial" font-size="13px" font-style="normal" font-weight="normal" text-decoration="none" x="173" y="310.7099609375">+UpdatedAt: DateTime</text></g></g><g transform="translate(-158,-230) scale(1,1)"><g><path fill="none" stroke="none"/><text fill="#000000" stroke="none" font-family="Arial" font-size="13px" font-style="normal" font-weight="normal" text-decoration="none" x="173" y="325.7099609375">+UpdateBy: Integer</text></g></g></g></svg>