<svg version="1.1" xmlns="http://www.w3.org/2000/svg" xmlns:xlink="http://www.w3.org/1999/xlink" width="468" height="195"><defs/><g><text fill="#eeeeee" stroke="none" font-family="Arial" font-size="24px" font-style="normal" font-weight="normal" text-decoration="none" x="0" y="0">UNREGISTERED</text><text fill="#eeeeee" stroke="none" font-family="Arial" font-size="24px" font-style="normal" font-weight="normal" text-decoration="none" x="0" y="30">UNREGISTERED</text><text fill="#eeeeee" stroke="none" font-family="Arial" font-size="24px" font-style="normal" font-weight="normal" text-decoration="none" x="0" y="60">UNREGISTERED</text><text fill="#eeeeee" stroke="none" font-family="Arial" font-size="24px" font-style="normal" font-weight="normal" text-decoration="none" x="0" y="90">UNREGISTERED</text><text fill="#eeeeee" stroke="none" font-family="Arial" font-size="24px" font-style="normal" font-weight="normal" text-decoration="none" x="0" y="120">UNREGISTERED</text><text fill="#eeeeee" stroke="none" font-family="Arial" font-size="24px" font-style="normal" font-weight="normal" text-decoration="none" x="0" y="150">UNREGISTERED</text><text fill="#eeeeee" stroke="none" font-family="Arial" font-size="24px" font-style="normal" font-weight="normal" text-decoration="none" x="0" y="180">UNREGISTERED</text><text fill="#eeeeee" stroke="none" font-family="Arial" font-size="24px" font-style="normal" font-weight="normal" text-decoration="none" x="200" y="0">UNREGISTERED</text><text fill="#eeeeee" stroke="none" font-family="Arial" font-size="24px" font-style="normal" font-weight="normal" text-decoration="none" x="200" y="30">UNREGISTERED</text><text fill="#eeeeee" stroke="none" font-family="Arial" font-size="24px" font-style="normal" font-weight="normal" text-decoration="none" x="200" y="60">UNREGISTERED</text><text fill="#eeeeee" stroke="none" font-family="Arial" font-size="24px" font-style="normal" font-weight="normal" text-decoration="none" x="200" y="90">UNREGISTERED</text><text fill="#eeeeee" stroke="none" font-family="Arial" font-size="24px" font-style="normal" font-weight="normal" text-decoration="none" x="200" y="120">UNREGISTERED</text><text fill="#eeeeee" stroke="none" font-family="Arial" font-size="24px" font-style="normal" font-weight="normal" text-decoration="none" x="200" y="150">UNREGISTERED</text><text fill="#eeeeee" stroke="none" font-family="Arial" font-size="24px" font-style="normal" font-weight="normal" text-decoration="none" x="200" y="180">UNREGISTERED</text><text fill="#eeeeee" stroke="none" font-family="Arial" font-size="24px" font-style="normal" font-weight="normal" text-decoration="none" x="400" y="0">UNREGISTERED</text><text fill="#eeeeee" stroke="none" font-family="Arial" font-size="24px" font-style="normal" font-weight="normal" text-decoration="none" x="400" y="30">UNREGISTERED</text><text fill="#eeeeee" stroke="none" font-family="Arial" font-size="24px" font-style="normal" font-weight="normal" text-decoration="none" x="400" y="60">UNREGISTERED</text><text fill="#eeeeee" stroke="none" font-family="Arial" font-size="24px" font-style="normal" font-weight="normal" text-decoration="none" x="400" y="90">UNREGISTERED</text><text fill="#eeeeee" stroke="none" font-family="Arial" font-size="24px" font-style="normal" font-weight="normal" text-decoration="none" x="400" y="120">UNREGISTERED</text><text fill="#eeeeee" stroke="none" font-family="Arial" font-size="24px" font-style="normal" font-weight="normal" text-decoration="none" x="400" y="150">UNREGISTERED</text><text fill="#eeeeee" stroke="none" font-family="Arial" font-size="24px" font-style="normal" font-weight="normal" text-decoration="none" x="400" y="180">UNREGISTERED</text><g transform="translate(-86,-239) scale(1,1)"><rect fill="#C0C0C0" stroke="none" x="103" y="263" width="184" height="168" opacity="0.2"/></g><g transform="translate(-86,-239) scale(1,1)"><rect fill="#ffffff" stroke="none" x="96" y="256" width="184" height="168"/></g><g transform="translate(-86,-239) scale(1,1)"><path fill="none" stroke="#000000" d="M 96 256 L 280 256 L 280 424 L 96 424 L 96 256 Z Z" stroke-miterlimit="10"/></g><g transform="translate(-86,-239) scale(1,1)"><path fill="none" stroke="#000000" d="M 96 279 L 280 279" stroke-miterlimit="10"/></g><g transform="translate(-86,-239) scale(1,1)"><path fill="none" stroke="#000000" d="M 145 279 L 145 424" stroke-miterlimit="10"/></g><g transform="translate(-86,-239) scale(1,1)"><path fill="none" stroke="#000000" d="M 190.4072265625 279 L 190.4072265625 424" stroke-miterlimit="10"/></g><g transform="translate(-86,-239) scale(1,1)"><g><path fill="none" stroke="none"/><text fill="#000000" stroke="none" font-family="Arial" font-size="13px" font-style="normal" font-weight="bold" text-decoration="none" x="173.91455078125" y="271.7099609375">Role</text></g></g><g transform="translate(-86,-239) scale(1,1)"><g><path fill="none" stroke="none"/><text fill="#000000" stroke="none" font-family="Arial" font-size="13px" font-style="normal" font-weight="normal" text-decoration="none" x="101" y="292.94384765625">PK,FK</text></g></g><g transform="translate(-86,-239) scale(1,1)"><g><path fill="none" stroke="none"/><text fill="#000000" stroke="none" font-family="Arial" font-size="13px" font-style="normal" font-weight="normal" text-decoration="none" x="150" y="292.94384765625">ID</text></g></g><g transform="translate(-86,-239) scale(1,1)"><g><path fill="none" stroke="none"/><text fill="#000000" stroke="none" font-family="Arial" font-size="13px" font-style="normal" font-weight="normal" text-decoration="none" x="195.4072265625" y="293.419921875">int</text></g></g><g transform="translate(-86,-239) scale(1,1)"><g><path fill="none" stroke="none"/><text fill="#000000" stroke="none" font-family="Arial" font-size="13px" font-style="normal" font-weight="normal" text-decoration="none" x="101" y="290"></text></g></g><g transform="translate(-86,-239) scale(1,1)"><g><path fill="none" stroke="none"/><text fill="#000000" stroke="none" font-family="Arial" font-size="13px" font-style="normal" font-weight="normal" text-decoration="none" x="101" y="299"></text></g></g><g transform="translate(-86,-239) scale(1,1)"><g><path fill="none" stroke="none"/><text fill="#000000" stroke="none" font-family="Arial" font-size="13px" font-style="normal" font-weight="normal" text-decoration="none" x="150" y="308.419921875">Code</text></g></g><g transform="translate(-86,-239) scale(1,1)"><g><path fill="none" stroke="none"/><text fill="#000000" stroke="none" font-family="Arial" font-size="13px" font-style="normal" font-weight="normal" text-decoration="none" x="195.4072265625" y="308.419921875">string</text></g></g><g transform="translate(-86,-239) scale(1,1)"><g><path fill="none" stroke="none"/><text fill="#000000" stroke="none" font-family="Arial" font-size="13px" font-style="normal" font-weight="normal" text-decoration="none" x="101" y="305"></text></g></g><g transform="translate(-86,-239) scale(1,1)"><g><path fill="none" stroke="none"/><text fill="#000000" stroke="none" font-family="Arial" font-size="13px" font-style="normal" font-weight="normal" text-decoration="none" x="101" y="314"></text></g></g><g transform="translate(-86,-239) scale(1,1)"><g><path fill="none" stroke="none"/><text fill="#000000" stroke="none" font-family="Arial" font-size="13px" font-style="normal" font-weight="normal" text-decoration="none" x="150" y="322.94384765625">Name</text></g></g><g transform="translate(-86,-239) scale(1,1)"><g><path fill="none" stroke="none"/><text fill="#000000" stroke="none" font-family="Arial" font-size="13px" font-style="normal" font-weight="normal" text-decoration="none" x="195.4072265625" y="323.419921875">string</text></g></g><g transform="translate(-86,-239) scale(1,1)"><g><path fill="none" stroke="none"/><text fill="#000000" stroke="none" font-family="Arial" font-size="13px" font-style="normal" font-weight="normal" text-decoration="none" x="101" y="320"></text></g></g><g transform="translate(-86,-239) scale(1,1)"><rect fill="#C0C0C0" stroke="none" x="367" y="263" width="184" height="168" opacity="0.2"/></g><g transform="translate(-86,-239) scale(1,1)"><rect fill="#ffffff" stroke="none" x="360" y="256" width="184" height="168"/></g><g transform="translate(-86,-239) scale(1,1)"><path fill="none" stroke="#000000" d="M 360 256 L 544 256 L 544 424 L 360 424 L 360 256 Z Z" stroke-miterlimit="10"/></g><g transform="translate(-86,-239) scale(1,1)"><path fill="none" stroke="#000000" d="M 360 279 L 544 279" stroke-miterlimit="10"/></g><g transform="translate(-86,-239) scale(1,1)"><path fill="none" stroke="#000000" d="M 388.05908203125 279 L 388.05908203125 424" stroke-miterlimit="10"/></g><g transform="translate(-86,-239) scale(1,1)"><path fill="none" stroke="#000000" d="M 439.22998046875 279 L 439.22998046875 424" stroke-miterlimit="10"/></g><g transform="translate(-86,-239) scale(1,1)"><g><path fill="none" stroke="none"/><text fill="#000000" stroke="none" font-family="Arial" font-size="13px" font-style="normal" font-weight="bold" text-decoration="none" x="425.279541015625" y="271.7099609375">RoleApp</text></g></g><g transform="translate(-86,-239) scale(1,1)"><g><path fill="none" stroke="none"/><text fill="#000000" stroke="none" font-family="Arial" font-size="13px" font-style="normal" font-weight="normal" text-decoration="none" x="365" y="292.94384765625">PK</text></g></g><g transform="translate(-86,-239) scale(1,1)"><g><path fill="none" stroke="none"/><text fill="#000000" stroke="none" font-family="Arial" font-size="13px" font-style="normal" font-weight="normal" text-decoration="none" x="393.05908203125" y="292.94384765625">ID</text></g></g><g transform="translate(-86,-239) scale(1,1)"><g><path fill="none" stroke="none"/><text fill="#000000" stroke="none" font-family="Arial" font-size="13px" font-style="normal" font-weight="normal" text-decoration="none" x="444.22998046875" y="293.419921875">int</text></g></g><g transform="translate(-86,-239) scale(1,1)"><g><path fill="none" stroke="none"/><text fill="#000000" stroke="none" font-family="Arial" font-size="13px" font-style="normal" font-weight="normal" text-decoration="none" x="365" y="290"></text></g></g><g transform="translate(-86,-239) scale(1,1)"><g><path fill="none" stroke="none"/><text fill="#000000" stroke="none" font-family="Arial" font-size="13px" font-style="normal" font-weight="normal" text-decoration="none" x="365" y="307.94384765625">FK</text></g></g><g transform="translate(-86,-239) scale(1,1)"><g><path fill="none" stroke="none"/><text fill="#000000" stroke="none" font-family="Arial" font-size="13px" font-style="normal" font-weight="normal" text-decoration="none" x="393.05908203125" y="308.419921875">RoleID</text></g></g><g transform="translate(-86,-239) scale(1,1)"><g><path fill="none" stroke="none"/><text fill="#000000" stroke="none" font-family="Arial" font-size="13px" font-style="normal" font-weight="normal" text-decoration="none" x="444.22998046875" y="308.419921875">int</text></g></g><g transform="translate(-86,-239) scale(1,1)"><g><path fill="none" stroke="none"/><text fill="#000000" stroke="none" font-family="Arial" font-size="13px" font-style="normal" font-weight="normal" text-decoration="none" x="365" y="305"></text></g></g><g transform="translate(-86,-239) scale(1,1)"><g><path fill="none" stroke="none"/><text fill="#000000" stroke="none" font-family="Arial" font-size="13px" font-style="normal" font-weight="normal" text-decoration="none" x="365" y="314"></text></g></g><g transform="translate(-86,-239) scale(1,1)"><g><path fill="none" stroke="none"/><text fill="#000000" stroke="none" font-family="Arial" font-size="13px" font-style="normal" font-weight="normal" text-decoration="none" x="393.05908203125" y="322.94384765625">AppID</text></g></g><g transform="translate(-86,-239) scale(1,1)"><g><path fill="none" stroke="none"/><text fill="#000000" stroke="none" font-family="Arial" font-size="13px" font-style="normal" font-weight="normal" text-decoration="none" x="444.22998046875" y="323.419921875">int</text></g></g><g transform="translate(-86,-239) scale(1,1)"><g><path fill="none" stroke="none"/><text fill="#000000" stroke="none" font-family="Arial" font-size="13px" font-style="normal" font-weight="normal" text-decoration="none" x="365" y="320"></text></g></g><g transform="translate(-86,-239) scale(1,1)"><path fill="none" stroke="#000000" d="M 280 270 L 360 270" stroke-miterlimit="10"/></g><g transform="translate(-86,-239) scale(1,1)"><path fill="none" stroke="#000000" d="M 346 270 L 360 277" stroke-miterlimit="10"/></g><g transform="translate(-86,-239) scale(1,1)"><path fill="none" stroke="#000000" d="M 346 270 L 360 263" stroke-miterlimit="10"/></g><g transform="translate(-86,-239) scale(1,1)"><path fill="#FFFFFF" stroke="none" d="M 331 270 C 331 266.1340064 334.1340064 263 338 263 C 341.8659936 263 345 266.1340064 345 270 C 345 273.8659936 341.8659936 277 338 277 C 334.1340064 277 331 273.8659936 331 270 Z"/></g><g transform="translate(-86,-239) scale(1,1)"><path fill="none" stroke="#000000" d="M 331 270 C 331 266.1340064 334.1340064 263 338 263 C 341.8659936 263 345 266.1340064 345 270 C 345 273.8659936 341.8659936 277 338 277 C 334.1340064 277 331 273.8659936 331 270 Z" stroke-miterlimit="10"/></g><g transform="translate(-86,-239) scale(1,1)"><path fill="none" stroke="#000000" d="M 294 270 L 280 263" stroke-miterlimit="10"/></g><g transform="translate(-86,-239) scale(1,1)"><path fill="none" stroke="#000000" d="M 294 270 L 280 277" stroke-miterlimit="10"/></g><g transform="translate(-86,-239) scale(1,1)"><path fill="#FFFFFF" stroke="none" d="M 295 270 C 295 266.1340064 298.1340064 263 302 263 C 305.8659936 263 309 266.1340064 309 270 C 309 273.8659936 305.8659936 277 302 277 C 298.1340064 277 295 273.8659936 295 270 Z"/></g><g transform="translate(-86,-239) scale(1,1)"><path fill="none" stroke="#000000" d="M 295 270 C 295 266.1340064 298.1340064 263 302 263 C 305.8659936 263 309 266.1340064 309 270 C 309 273.8659936 305.8659936 277 302 277 C 298.1340064 277 295 273.8659936 295 270 Z" stroke-miterlimit="10"/></g><g transform="translate(-86,-239) scale(1,1)"><g><path fill="none" stroke="none"/><text fill="#000000" stroke="none" font-family="Arial" font-size="13px" font-style="normal" font-weight="normal" text-decoration="none" x="304.5" y="255"></text></g></g><g transform="translate(-86,-239) scale(1,1)"><g><path fill="none" stroke="none"/><text fill="#000000" stroke="none" font-family="Arial" font-size="13px" font-style="normal" font-weight="normal" text-decoration="none" x="333.5" y="255"></text></g></g></g></svg>