<svg version="1.1" xmlns="http://www.w3.org/2000/svg" xmlns:xlink="http://www.w3.org/1999/xlink" width="548" height="180"><defs/><g><text fill="#eeeeee" stroke="none" font-family="Arial" font-size="24px" font-style="normal" font-weight="normal" text-decoration="none" x="0" y="0">UNREGISTERED</text><text fill="#eeeeee" stroke="none" font-family="Arial" font-size="24px" font-style="normal" font-weight="normal" text-decoration="none" x="0" y="30">UNREGISTERED</text><text fill="#eeeeee" stroke="none" font-family="Arial" font-size="24px" font-style="normal" font-weight="normal" text-decoration="none" x="0" y="60">UNREGISTERED</text><text fill="#eeeeee" stroke="none" font-family="Arial" font-size="24px" font-style="normal" font-weight="normal" text-decoration="none" x="0" y="90">UNREGISTERED</text><text fill="#eeeeee" stroke="none" font-family="Arial" font-size="24px" font-style="normal" font-weight="normal" text-decoration="none" x="0" y="120">UNREGISTERED</text><text fill="#eeeeee" stroke="none" font-family="Arial" font-size="24px" font-style="normal" font-weight="normal" text-decoration="none" x="0" y="150">UNREGISTERED</text><text fill="#eeeeee" stroke="none" font-family="Arial" font-size="24px" font-style="normal" font-weight="normal" text-decoration="none" x="200" y="0">UNREGISTERED</text><text fill="#eeeeee" stroke="none" font-family="Arial" font-size="24px" font-style="normal" font-weight="normal" text-decoration="none" x="200" y="30">UNREGISTERED</text><text fill="#eeeeee" stroke="none" font-family="Arial" font-size="24px" font-style="normal" font-weight="normal" text-decoration="none" x="200" y="60">UNREGISTERED</text><text fill="#eeeeee" stroke="none" font-family="Arial" font-size="24px" font-style="normal" font-weight="normal" text-decoration="none" x="200" y="90">UNREGISTERED</text><text fill="#eeeeee" stroke="none" font-family="Arial" font-size="24px" font-style="normal" font-weight="normal" text-decoration="none" x="200" y="120">UNREGISTERED</text><text fill="#eeeeee" stroke="none" font-family="Arial" font-size="24px" font-style="normal" font-weight="normal" text-decoration="none" x="200" y="150">UNREGISTERED</text><text fill="#eeeeee" stroke="none" font-family="Arial" font-size="24px" font-style="normal" font-weight="normal" text-decoration="none" x="400" y="0">UNREGISTERED</text><text fill="#eeeeee" stroke="none" font-family="Arial" font-size="24px" font-style="normal" font-weight="normal" text-decoration="none" x="400" y="30">UNREGISTERED</text><text fill="#eeeeee" stroke="none" font-family="Arial" font-size="24px" font-style="normal" font-weight="normal" text-decoration="none" x="400" y="60">UNREGISTERED</text><text fill="#eeeeee" stroke="none" font-family="Arial" font-size="24px" font-style="normal" font-weight="normal" text-decoration="none" x="400" y="90">UNREGISTERED</text><text fill="#eeeeee" stroke="none" font-family="Arial" font-size="24px" font-style="normal" font-weight="normal" text-decoration="none" x="400" y="120">UNREGISTERED</text><text fill="#eeeeee" stroke="none" font-family="Arial" font-size="24px" font-style="normal" font-weight="normal" text-decoration="none" x="400" y="150">UNREGISTERED</text><g transform="translate(-254,-182) scale(1,1)"><rect fill="#C0C0C0" stroke="none" x="583" y="199" width="216" height="160" opacity="0.2"/></g><g transform="translate(-254,-182) scale(1,1)"><rect fill="#ffffff" stroke="none" x="576" y="192" width="216" height="160"/></g><g transform="translate(-254,-182) scale(1,1)"><path fill="none" stroke="#000000" d="M 576 192 L 792 192 L 792 352 L 576 352 L 576 192 Z Z" stroke-miterlimit="10"/></g><g transform="translate(-254,-182) scale(1,1)"><path fill="none" stroke="#000000" d="M 576 217 L 792 217" stroke-miterlimit="10"/></g><g transform="translate(-254,-182) scale(1,1)"><path fill="none" stroke="#000000" d="M 576 270 L 792 270" stroke-miterlimit="10"/></g><g transform="translate(-254,-182) scale(1,1)"><g><path fill="none" stroke="none"/><text fill="#000000" stroke="none" font-family="Arial" font-size="13px" font-style="normal" font-weight="bold" text-decoration="none" x="645.339599609375" y="209.471923828125">ProcessItem</text></g></g><g transform="translate(-254,-182) scale(1,1)"><g><path fill="none" stroke="none"/><text fill="#000000" stroke="none" font-family="Arial" font-size="13px" font-style="normal" font-weight="normal" text-decoration="none" x="581" y="232.471923828125">+ProcessID</text></g></g><g transform="translate(-254,-182) scale(1,1)"><g><path fill="none" stroke="none"/><text fill="#000000" stroke="none" font-family="Arial" font-size="13px" font-style="normal" font-weight="normal" text-decoration="none" x="581" y="247.471923828125">+ProcessItemID</text></g></g><g transform="translate(-254,-182) scale(1,1)"><g><path fill="none" stroke="none"/><text fill="#000000" stroke="none" font-family="Arial" font-size="13px" font-style="normal" font-weight="normal" text-decoration="none" x="581" y="262.471923828125">+Item</text></g></g><g transform="translate(-254,-182) scale(1,1)"><rect fill="#C0C0C0" stroke="none" x="271" y="199" width="184" height="160" opacity="0.2"/></g><g transform="translate(-254,-182) scale(1,1)"><rect fill="#ffffff" stroke="none" x="264" y="192" width="184" height="160"/></g><g transform="translate(-254,-182) scale(1,1)"><path fill="none" stroke="#000000" d="M 264 192 L 448 192 L 448 352 L 264 352 L 264 192 Z Z" stroke-miterlimit="10"/></g><g transform="translate(-254,-182) scale(1,1)"><path fill="none" stroke="#000000" d="M 264 217 L 448 217" stroke-miterlimit="10"/></g><g transform="translate(-254,-182) scale(1,1)"><path fill="none" stroke="#000000" d="M 264 300 L 448 300" stroke-miterlimit="10"/></g><g transform="translate(-254,-182) scale(1,1)"><g><path fill="none" stroke="none"/><text fill="#000000" stroke="none" font-family="Arial" font-size="13px" font-style="normal" font-weight="bold" text-decoration="none" x="330.70458984375" y="209.471923828125">Process</text></g></g><g transform="translate(-254,-182) scale(1,1)"><g><path fill="none" stroke="none"/><text fill="#000000" stroke="none" font-family="Arial" font-size="13px" font-style="normal" font-weight="normal" text-decoration="none" x="269" y="232.471923828125">+ProcessID: INT</text></g></g><g transform="translate(-254,-182) scale(1,1)"><g><path fill="none" stroke="none"/><text fill="#000000" stroke="none" font-family="Arial" font-size="13px" font-style="normal" font-weight="normal" text-decoration="none" x="269" y="247.7099609375">+Code: String</text></g></g><g transform="translate(-254,-182) scale(1,1)"><g><path fill="none" stroke="none"/><text fill="#000000" stroke="none" font-family="Arial" font-size="13px" font-style="normal" font-weight="normal" text-decoration="none" x="269" y="262.7099609375">+Name: String</text></g></g><g transform="translate(-254,-182) scale(1,1)"><g><path fill="none" stroke="none"/><text fill="#000000" stroke="none" font-family="Arial" font-size="13px" font-style="normal" font-weight="normal" text-decoration="none" x="269" y="277.7099609375">+StartAt: DateTime</text></g></g><g transform="translate(-254,-182) scale(1,1)"><g><path fill="none" stroke="none"/><text fill="#000000" stroke="none" font-family="Arial" font-size="13px" font-style="normal" font-weight="normal" text-decoration="none" x="269" y="292.7099609375">+EndAt: DateTime</text></g></g><g transform="translate(-254,-182) scale(1,1)"><path fill="none" stroke="#000000" d="M 449 272 L 575 272" stroke-miterlimit="10"/></g><g transform="translate(-254,-182) scale(1,1)"><path fill="#FFFFFF" stroke="none" d="M 564.8373251423759 276.209517756016 L 575 272 L 564.8373251423758 267.790482243984 L 553 272"/></g><g transform="translate(-254,-182) scale(1,1)"><path fill="none" stroke="#000000" d="M 564.8373251423759 276.209517756016 L 575 272 L 564.8373251423758 267.790482243984 L 553 272 L 564.8373251423759 276.209517756016" stroke-miterlimit="10"/></g></g></svg>