<svg version="1.1" xmlns="http://www.w3.org/2000/svg" xmlns:xlink="http://www.w3.org/1999/xlink" width="164" height="124"><defs/><g><text fill="#eeeeee" stroke="none" font-family="Arial" font-size="24px" font-style="normal" font-weight="normal" text-decoration="none" x="0" y="0">UNREGISTERED</text><text fill="#eeeeee" stroke="none" font-family="Arial" font-size="24px" font-style="normal" font-weight="normal" text-decoration="none" x="0" y="30">UNREGISTERED</text><text fill="#eeeeee" stroke="none" font-family="Arial" font-size="24px" font-style="normal" font-weight="normal" text-decoration="none" x="0" y="60">UNREGISTERED</text><text fill="#eeeeee" stroke="none" font-family="Arial" font-size="24px" font-style="normal" font-weight="normal" text-decoration="none" x="0" y="90">UNREGISTERED</text><text fill="#eeeeee" stroke="none" font-family="Arial" font-size="24px" font-style="normal" font-weight="normal" text-decoration="none" x="0" y="120">UNREGISTERED</text><g transform="translate(-78,-214) scale(1,1)"><rect fill="#C0C0C0" stroke="none" x="95" y="231" width="144" height="104" opacity="0.2"/></g><g transform="translate(-78,-214) scale(1,1)"><rect fill="#ffffff" stroke="none" x="88" y="224" width="144" height="104"/></g><g transform="translate(-78,-214) scale(1,1)"><path fill="none" stroke="#000000" d="M 88 224 L 232 224 L 232 328 L 88 328 L 88 224 Z Z" stroke-miterlimit="10"/></g><g transform="translate(-78,-214) scale(1,1)"><path fill="none" stroke="#000000" d="M 88 249 L 232 249" stroke-miterlimit="10"/></g><g transform="translate(-78,-214) scale(1,1)"><path fill="none" stroke="#000000" d="M 88 302 L 232 302" stroke-miterlimit="10"/></g><g transform="translate(-78,-214) scale(1,1)"><g><path fill="none" stroke="none"/><text fill="#000000" stroke="none" font-family="Arial" font-size="13px" font-style="normal" font-weight="bold" text-decoration="none" x="145.54638671875" y="242">User</text></g></g><g transform="translate(-78,-214) scale(1,1)"><g><path fill="none" stroke="none"/><text fill="#000000" stroke="none" font-family="Arial" font-size="13px" font-style="normal" font-weight="normal" text-decoration="none" x="93" y="265">+ID</text></g></g><g transform="translate(-78,-214) scale(1,1)"><g><path fill="none" stroke="none"/><text fill="#000000" stroke="none" font-family="Arial" font-size="13px" font-style="normal" font-weight="normal" text-decoration="none" x="93" y="280">+Code</text></g></g><g transform="translate(-78,-214) scale(1,1)"><g><path fill="none" stroke="none"/><text fill="#000000" stroke="none" font-family="Arial" font-size="13px" font-style="normal" font-weight="normal" text-decoration="none" x="93" y="295">+Name</text></g></g></g></svg>