<svg version="1.1" xmlns="http://www.w3.org/2000/svg" xmlns:xlink="http://www.w3.org/1999/xlink" width="406.91162109375" height="199"><defs/><g><text fill="#eeeeee" stroke="none" font-family="Arial" font-size="24px" font-style="normal" font-weight="normal" text-decoration="none" x="0" y="0">UNREGISTERED</text><text fill="#eeeeee" stroke="none" font-family="Arial" font-size="24px" font-style="normal" font-weight="normal" text-decoration="none" x="0" y="30">UNREGISTERED</text><text fill="#eeeeee" stroke="none" font-family="Arial" font-size="24px" font-style="normal" font-weight="normal" text-decoration="none" x="0" y="60">UNREGISTERED</text><text fill="#eeeeee" stroke="none" font-family="Arial" font-size="24px" font-style="normal" font-weight="normal" text-decoration="none" x="0" y="90">UNREGISTERED</text><text fill="#eeeeee" stroke="none" font-family="Arial" font-size="24px" font-style="normal" font-weight="normal" text-decoration="none" x="0" y="120">UNREGISTERED</text><text fill="#eeeeee" stroke="none" font-family="Arial" font-size="24px" font-style="normal" font-weight="normal" text-decoration="none" x="0" y="150">UNREGISTERED</text><text fill="#eeeeee" stroke="none" font-family="Arial" font-size="24px" font-style="normal" font-weight="normal" text-decoration="none" x="0" y="180">UNREGISTERED</text><text fill="#eeeeee" stroke="none" font-family="Arial" font-size="24px" font-style="normal" font-weight="normal" text-decoration="none" x="200" y="0">UNREGISTERED</text><text fill="#eeeeee" stroke="none" font-family="Arial" font-size="24px" font-style="normal" font-weight="normal" text-decoration="none" x="200" y="30">UNREGISTERED</text><text fill="#eeeeee" stroke="none" font-family="Arial" font-size="24px" font-style="normal" font-weight="normal" text-decoration="none" x="200" y="60">UNREGISTERED</text><text fill="#eeeeee" stroke="none" font-family="Arial" font-size="24px" font-style="normal" font-weight="normal" text-decoration="none" x="200" y="90">UNREGISTERED</text><text fill="#eeeeee" stroke="none" font-family="Arial" font-size="24px" font-style="normal" font-weight="normal" text-decoration="none" x="200" y="120">UNREGISTERED</text><text fill="#eeeeee" stroke="none" font-family="Arial" font-size="24px" font-style="normal" font-weight="normal" text-decoration="none" x="200" y="150">UNREGISTERED</text><text fill="#eeeeee" stroke="none" font-family="Arial" font-size="24px" font-style="normal" font-weight="normal" text-decoration="none" x="200" y="180">UNREGISTERED</text><text fill="#eeeeee" stroke="none" font-family="Arial" font-size="24px" font-style="normal" font-weight="normal" text-decoration="none" x="400" y="0">UNREGISTERED</text><text fill="#eeeeee" stroke="none" font-family="Arial" font-size="24px" font-style="normal" font-weight="normal" text-decoration="none" x="400" y="30">UNREGISTERED</text><text fill="#eeeeee" stroke="none" font-family="Arial" font-size="24px" font-style="normal" font-weight="normal" text-decoration="none" x="400" y="60">UNREGISTERED</text><text fill="#eeeeee" stroke="none" font-family="Arial" font-size="24px" font-style="normal" font-weight="normal" text-decoration="none" x="400" y="90">UNREGISTERED</text><text fill="#eeeeee" stroke="none" font-family="Arial" font-size="24px" font-style="normal" font-weight="normal" text-decoration="none" x="400" y="120">UNREGISTERED</text><text fill="#eeeeee" stroke="none" font-family="Arial" font-size="24px" font-style="normal" font-weight="normal" text-decoration="none" x="400" y="150">UNREGISTERED</text><text fill="#eeeeee" stroke="none" font-family="Arial" font-size="24px" font-style="normal" font-weight="normal" text-decoration="none" x="400" y="180">UNREGISTERED</text><g transform="translate(-10,-10) scale(1,1)"><rect fill="#C0C0C0" stroke="none" x="199.4010009765625" y="27" width="19.599999999999994" height="15" opacity="0.2"/></g><g transform="translate(-10,-10) scale(1,1)"><rect fill="#C0C0C0" stroke="none" x="199.4010009765625" y="41" width="49" height="25" opacity="0.2"/></g><g transform="translate(-10,-10) scale(1,1)"><rect fill="#ffffff" stroke="none" x="192.4010009765625" y="35" width="49" height="24"/></g><g transform="translate(-10,-10) scale(1,1)"><path fill="none" stroke="#000000" d="M 192.4010009765625 35 L 241.4010009765625 35 L 241.4010009765625 59 L 192.4010009765625 59 L 192.4010009765625 35 Z Z" stroke-miterlimit="10"/></g><g transform="translate(-10,-10) scale(1,1)"><rect fill="#ffffff" stroke="none" x="192.4010009765625" y="20" width="19.599999999999994" height="15"/></g><g transform="translate(-10,-10) scale(1,1)"><path fill="none" stroke="#000000" d="M 192.4010009765625 20 L 212.0010009765625 20 L 212.0010009765625 35 L 192.4010009765625 35 L 192.4010009765625 20 Z Z" stroke-miterlimit="10"/></g><g transform="translate(-10,-10) scale(1,1)"><rect fill="#ffffff" stroke="none" x="192.4010009765625" y="34" width="49" height="25"/></g><g transform="translate(-10,-10) scale(1,1)"><path fill="none" stroke="#000000" d="M 192.4010009765625 34 L 241.4010009765625 34 L 241.4010009765625 59 L 192.4010009765625 59 L 192.4010009765625 34 Z Z" stroke-miterlimit="10"/></g><g transform="translate(-10,-10) scale(1,1)"><g><path fill="none" stroke="none"/><text fill="#000000" stroke="none" font-family="Arial" font-size="13px" font-style="normal" font-weight="bold" text-decoration="none" x="208.2364501953125" y="53">ZH</text></g></g><g transform="translate(-10,-10) scale(1,1)"><rect fill="#C0C0C0" stroke="none" x="194.1182861328125" y="97" width="23.826171875" height="15" opacity="0.2"/></g><g transform="translate(-10,-10) scale(1,1)"><rect fill="#C0C0C0" stroke="none" x="194.1182861328125" y="111" width="59.5654296875" height="25" opacity="0.2"/></g><g transform="translate(-10,-10) scale(1,1)"><rect fill="#ffffff" stroke="none" x="187.1182861328125" y="105" width="59.5654296875" height="24"/></g><g transform="translate(-10,-10) scale(1,1)"><path fill="none" stroke="#000000" d="M 187.1182861328125 105 L 246.6837158203125 105 L 246.6837158203125 129 L 187.1182861328125 129 L 187.1182861328125 105 Z Z" stroke-miterlimit="10"/></g><g transform="translate(-10,-10) scale(1,1)"><rect fill="#ffffff" stroke="none" x="187.1182861328125" y="90" width="23.826171875" height="15"/></g><g transform="translate(-10,-10) scale(1,1)"><path fill="none" stroke="#000000" d="M 187.1182861328125 90 L 210.9444580078125 90 L 210.9444580078125 105 L 187.1182861328125 105 L 187.1182861328125 90 Z Z" stroke-miterlimit="10"/></g><g transform="translate(-10,-10) scale(1,1)"><rect fill="#ffffff" stroke="none" x="187.1182861328125" y="104" width="59.5654296875" height="25"/></g><g transform="translate(-10,-10) scale(1,1)"><path fill="none" stroke="#000000" d="M 187.1182861328125 104 L 246.6837158203125 104 L 246.6837158203125 129 L 187.1182861328125 129 L 187.1182861328125 104 Z Z" stroke-miterlimit="10"/></g><g transform="translate(-10,-10) scale(1,1)"><g><path fill="none" stroke="none"/><text fill="#000000" stroke="none" font-family="Arial" font-size="13px" font-style="normal" font-weight="bold" text-decoration="none" x="191.6182861328125" y="123">NetCore</text></g></g><g transform="translate(-10,-10) scale(1,1)"><rect fill="#C0C0C0" stroke="none" x="27" y="167" width="27.3021484375" height="15" opacity="0.2"/></g><g transform="translate(-10,-10) scale(1,1)"><rect fill="#C0C0C0" stroke="none" x="27" y="181" width="68.25537109375" height="25" opacity="0.2"/></g><g transform="translate(-10,-10) scale(1,1)"><rect fill="#ffffff" stroke="none" x="20" y="175" width="68.25537109375" height="24"/></g><g transform="translate(-10,-10) scale(1,1)"><path fill="none" stroke="#000000" d="M 20 175 L 88.25537109375 175 L 88.25537109375 199 L 20 199 L 20 175 Z Z" stroke-miterlimit="10"/></g><g transform="translate(-10,-10) scale(1,1)"><rect fill="#ffffff" stroke="none" x="20" y="160" width="27.3021484375" height="15"/></g><g transform="translate(-10,-10) scale(1,1)"><path fill="none" stroke="#000000" d="M 20 160 L 47.3021484375 160 L 47.3021484375 175 L 20 175 L 20 160 Z Z" stroke-miterlimit="10"/></g><g transform="translate(-10,-10) scale(1,1)"><rect fill="#ffffff" stroke="none" x="20" y="174" width="68.25537109375" height="25"/></g><g transform="translate(-10,-10) scale(1,1)"><path fill="none" stroke="#000000" d="M 20 174 L 88.25537109375 174 L 88.25537109375 199 L 20 199 L 20 174 Z Z" stroke-miterlimit="10"/></g><g transform="translate(-10,-10) scale(1,1)"><g><path fill="none" stroke="none"/><text fill="#000000" stroke="none" font-family="Arial" font-size="13px" font-style="normal" font-weight="bold" text-decoration="none" x="24.5" y="193">DataBase</text></g></g><g transform="translate(-10,-10) scale(1,1)"><rect fill="#C0C0C0" stroke="none" x="126.25537109375" y="167" width="31.341796875" height="15" opacity="0.2"/></g><g transform="translate(-10,-10) scale(1,1)"><rect fill="#C0C0C0" stroke="none" x="126.25537109375" y="181" width="78.3544921875" height="25" opacity="0.2"/></g><g transform="translate(-10,-10) scale(1,1)"><rect fill="#ffffff" stroke="none" x="119.25537109375" y="175" width="78.3544921875" height="24"/></g><g transform="translate(-10,-10) scale(1,1)"><path fill="none" stroke="#000000" d="M 119.25537109375 175 L 197.60986328125 175 L 197.60986328125 199 L 119.25537109375 199 L 119.25537109375 175 Z Z" stroke-miterlimit="10"/></g><g transform="translate(-10,-10) scale(1,1)"><rect fill="#ffffff" stroke="none" x="119.25537109375" y="160" width="31.341796875" height="15"/></g><g transform="translate(-10,-10) scale(1,1)"><path fill="none" stroke="#000000" d="M 119.25537109375 160 L 150.59716796875 160 L 150.59716796875 175 L 119.25537109375 175 L 119.25537109375 160 Z Z" stroke-miterlimit="10"/></g><g transform="translate(-10,-10) scale(1,1)"><rect fill="#ffffff" stroke="none" x="119.25537109375" y="174" width="78.3544921875" height="25"/></g><g transform="translate(-10,-10) scale(1,1)"><path fill="none" stroke="#000000" d="M 119.25537109375 174 L 197.60986328125 174 L 197.60986328125 199 L 119.25537109375 199 L 119.25537109375 174 Z Z" stroke-miterlimit="10"/></g><g transform="translate(-10,-10) scale(1,1)"><g><path fill="none" stroke="none"/><text fill="#000000" stroke="none" font-family="Arial" font-size="13px" font-style="normal" font-weight="bold" text-decoration="none" x="123.75537109375" y="193">Extensions</text></g></g><g transform="translate(-10,-10) scale(1,1)"><rect fill="#C0C0C0" stroke="none" x="235.60986328125" y="167" width="37.40761718750002" height="15" opacity="0.2"/></g><g transform="translate(-10,-10) scale(1,1)"><rect fill="#C0C0C0" stroke="none" x="235.60986328125" y="181" width="93.51904296875" height="25" opacity="0.2"/></g><g transform="translate(-10,-10) scale(1,1)"><rect fill="#ffffff" stroke="none" x="228.60986328125" y="175" width="93.51904296875" height="24"/></g><g transform="translate(-10,-10) scale(1,1)"><path fill="none" stroke="#000000" d="M 228.60986328125 175 L 322.12890625 175 L 322.12890625 199 L 228.60986328125 199 L 228.60986328125 175 Z Z" stroke-miterlimit="10"/></g><g transform="translate(-10,-10) scale(1,1)"><rect fill="#ffffff" stroke="none" x="228.60986328125" y="160" width="37.40761718750002" height="15"/></g><g transform="translate(-10,-10) scale(1,1)"><path fill="none" stroke="#000000" d="M 228.60986328125 160 L 266.01748046875 160 L 266.01748046875 175 L 228.60986328125 175 L 228.60986328125 160 Z Z" stroke-miterlimit="10"/></g><g transform="translate(-10,-10) scale(1,1)"><rect fill="#ffffff" stroke="none" x="228.60986328125" y="174" width="93.51904296875" height="25"/></g><g transform="translate(-10,-10) scale(1,1)"><path fill="none" stroke="#000000" d="M 228.60986328125 174 L 322.12890625 174 L 322.12890625 199 L 228.60986328125 199 L 228.60986328125 174 Z Z" stroke-miterlimit="10"/></g><g transform="translate(-10,-10) scale(1,1)"><g><path fill="none" stroke="none"/><text fill="#000000" stroke="none" font-family="Arial" font-size="13px" font-style="normal" font-weight="bold" text-decoration="none" x="233.10986328125" y="193">Infrastructure</text></g></g><g transform="translate(-10,-10) scale(1,1)"><rect fill="#C0C0C0" stroke="none" x="360.12890625" y="167" width="21.513085937500023" height="15" opacity="0.2"/></g><g transform="translate(-10,-10) scale(1,1)"><rect fill="#C0C0C0" stroke="none" x="360.12890625" y="181" width="53.78271484375" height="25" opacity="0.2"/></g><g transform="translate(-10,-10) scale(1,1)"><rect fill="#ffffff" stroke="none" x="353.12890625" y="175" width="53.78271484375" height="24"/></g><g transform="translate(-10,-10) scale(1,1)"><path fill="none" stroke="#000000" d="M 353.12890625 175 L 406.91162109375 175 L 406.91162109375 199 L 353.12890625 199 L 353.12890625 175 Z Z" stroke-miterlimit="10"/></g><g transform="translate(-10,-10) scale(1,1)"><rect fill="#ffffff" stroke="none" x="353.12890625" y="160" width="21.513085937500023" height="15"/></g><g transform="translate(-10,-10) scale(1,1)"><path fill="none" stroke="#000000" d="M 353.12890625 160 L 374.6419921875 160 L 374.6419921875 175 L 353.12890625 175 L 353.12890625 160 Z Z" stroke-miterlimit="10"/></g><g transform="translate(-10,-10) scale(1,1)"><rect fill="#ffffff" stroke="none" x="353.12890625" y="174" width="53.78271484375" height="25"/></g><g transform="translate(-10,-10) scale(1,1)"><path fill="none" stroke="#000000" d="M 353.12890625 174 L 406.91162109375 174 L 406.91162109375 199 L 353.12890625 199 L 353.12890625 174 Z Z" stroke-miterlimit="10"/></g><g transform="translate(-10,-10) scale(1,1)"><g><path fill="none" stroke="none"/><text fill="#000000" stroke="none" font-family="Arial" font-size="13px" font-style="normal" font-weight="bold" text-decoration="none" x="357.62890625" y="193">Modals</text></g></g><g transform="translate(-10,-10) scale(1,1)"><path fill="none" stroke="#000000" d="M 217 89 Q 217 75 217 60" stroke-miterlimit="10"/></g><g transform="translate(-10,-10) scale(1,1)"><path fill="#FFFFFF" stroke="none" d="M 210 67 C 210 63.1340064 213.1340064 60 217 60 C 220.8659936 60 224 63.1340064 224 67 C 224 70.8659936 220.8659936 74 217 74 C 213.1340064 74 210 70.8659936 210 67 Z"/></g><g transform="translate(-10,-10) scale(1,1)"><path fill="none" stroke="#000000" d="M 210 67 C 210 63.1340064 213.1340064 60 217 60 C 220.8659936 60 224 63.1340064 224 67 C 224 70.8659936 220.8659936 74 217 74 C 213.1340064 74 210 70.8659936 210 67 Z" stroke-miterlimit="10"/></g><g transform="translate(-10,-10) scale(1,1)"><path fill="none" stroke="#000000" d="M 217 74 L 217 60" stroke-miterlimit="10"/></g><g transform="translate(-10,-10) scale(1,1)"><path fill="none" stroke="#000000" d="M 224 67 L 210 67" stroke-miterlimit="10"/></g><g transform="translate(-10,-10) scale(1,1)"><path fill="none" stroke="#000000" d="M 55 159 Q 55 145 186 116" stroke-miterlimit="10"/></g><g transform="translate(-10,-10) scale(1,1)"><path fill="#FFFFFF" stroke="none" d="M 172.16546523460497 117.51298861218669 C 172.16546523460497 113.6469950121867 175.29947163460497 110.51298861218669 179.16546523460497 110.51298861218669 C 183.03145883460496 110.51298861218669 186.16546523460497 113.6469950121867 186.16546523460497 117.51298861218669 C 186.16546523460497 121.37898221218668 183.03145883460496 124.51298861218669 179.16546523460497 124.51298861218669 C 175.29947163460497 124.51298861218669 172.16546523460497 121.37898221218668 172.16546523460497 117.51298861218669 Z"/></g><g transform="translate(-10,-10) scale(1,1)"><path fill="none" stroke="#000000" d="M 172.16546523460497 117.51298861218669 C 172.16546523460497 113.6469950121867 175.29947163460497 110.51298861218669 179.16546523460497 110.51298861218669 C 183.03145883460496 110.51298861218669 186.16546523460497 113.6469950121867 186.16546523460497 117.51298861218669 C 186.16546523460497 121.37898221218668 183.03145883460496 124.51298861218669 179.16546523460497 124.51298861218669 C 175.29947163460497 124.51298861218669 172.16546523460497 121.37898221218668 172.16546523460497 117.51298861218669 Z" stroke-miterlimit="10"/></g><g transform="translate(-10,-10) scale(1,1)"><path fill="none" stroke="#000000" d="M 172.33093046920993 119.02597722437338 L 186 116" stroke-miterlimit="10"/></g><g transform="translate(-10,-10) scale(1,1)"><path fill="none" stroke="#000000" d="M 180.67845384679165 124.34752337758172 L 177.65247662241828 110.67845384679165" stroke-miterlimit="10"/></g><g transform="translate(-10,-10) scale(1,1)"><path fill="none" stroke="#000000" d="M 159 159 Q 159 145 186 128" stroke-miterlimit="10"/></g><g transform="translate(-10,-10) scale(1,1)"><path fill="#FFFFFF" stroke="none" d="M 173.07637011937175 131.72969288780297 C 173.07637011937175 127.86369928780297 176.21037651937175 124.72969288780297 180.07637011937175 124.72969288780297 C 183.94236371937174 124.72969288780297 187.07637011937175 127.86369928780297 187.07637011937175 131.72969288780297 C 187.07637011937175 135.59568648780296 183.94236371937174 138.72969288780297 180.07637011937175 138.72969288780297 C 176.21037651937175 138.72969288780297 173.07637011937175 135.59568648780296 173.07637011937175 131.72969288780297 Z"/></g><g transform="translate(-10,-10) scale(1,1)"><path fill="none" stroke="#000000" d="M 173.07637011937175 131.72969288780297 C 173.07637011937175 127.86369928780297 176.21037651937175 124.72969288780297 180.07637011937175 124.72969288780297 C 183.94236371937174 124.72969288780297 187.07637011937175 127.86369928780297 187.07637011937175 131.72969288780297 C 187.07637011937175 135.59568648780296 183.94236371937174 138.72969288780297 180.07637011937175 138.72969288780297 C 176.21037651937175 138.72969288780297 173.07637011937175 135.59568648780296 173.07637011937175 131.72969288780297 Z" stroke-miterlimit="10"/></g><g transform="translate(-10,-10) scale(1,1)"><path fill="none" stroke="#000000" d="M 174.1527402387435 135.45938577560594 L 186 128" stroke-miterlimit="10"/></g><g transform="translate(-10,-10) scale(1,1)"><path fill="none" stroke="#000000" d="M 183.8060630071747 137.65332276843122 L 176.34667723156878 125.80606300717471" stroke-miterlimit="10"/></g><g transform="translate(-10,-10) scale(1,1)"><path fill="none" stroke="#000000" d="M 276 159 Q 276 145 248 128" stroke-miterlimit="10"/></g><g transform="translate(-10,-10) scale(1,1)"><path fill="#FFFFFF" stroke="none" d="M 246.9835126065521 131.63284693969234 C 246.9835126065521 127.76685333969235 250.1175190065521 124.63284693969234 253.9835126065521 124.63284693969234 C 257.8495062065521 124.63284693969234 260.9835126065521 127.76685333969235 260.9835126065521 131.63284693969234 C 260.9835126065521 135.49884053969234 257.8495062065521 138.63284693969234 253.9835126065521 138.63284693969234 C 250.1175190065521 138.63284693969234 246.9835126065521 135.49884053969234 246.9835126065521 131.63284693969234 Z"/></g><g transform="translate(-10,-10) scale(1,1)"><path fill="none" stroke="#000000" d="M 246.9835126065521 131.63284693969234 C 246.9835126065521 127.76685333969235 250.1175190065521 124.63284693969234 253.9835126065521 124.63284693969234 C 257.8495062065521 124.63284693969234 260.9835126065521 127.76685333969235 260.9835126065521 131.63284693969234 C 260.9835126065521 135.49884053969234 257.8495062065521 138.63284693969234 253.9835126065521 138.63284693969234 C 250.1175190065521 138.63284693969234 246.9835126065521 135.49884053969234 246.9835126065521 131.63284693969234 Z" stroke-miterlimit="10"/></g><g transform="translate(-10,-10) scale(1,1)"><path fill="none" stroke="#000000" d="M 259.9670252131042 135.26569387938468 L 248 128" stroke-miterlimit="10"/></g><g transform="translate(-10,-10) scale(1,1)"><path fill="none" stroke="#000000" d="M 257.61635954624444 125.64933433314025 L 250.35066566685975 137.61635954624444" stroke-miterlimit="10"/></g><g transform="translate(-10,-10) scale(1,1)"><path fill="none" stroke="#000000" d="M 381 159 Q 381 145 248 116" stroke-miterlimit="10"/></g><g transform="translate(-10,-10) scale(1,1)"><path fill="#FFFFFF" stroke="none" d="M 247.83930499557155 117.49127702910958 C 247.83930499557155 113.62528342910959 250.97331139557153 110.49127702910958 254.83930499557152 110.49127702910958 C 258.7052985955715 110.49127702910958 261.8393049955715 113.62528342910959 261.8393049955715 117.49127702910958 C 261.8393049955715 121.35727062910958 258.7052985955715 124.49127702910958 254.83930499557152 124.49127702910958 C 250.97331139557153 124.49127702910958 247.83930499557155 121.35727062910958 247.83930499557155 117.49127702910958 Z"/></g><g transform="translate(-10,-10) scale(1,1)"><path fill="none" stroke="#000000" d="M 247.83930499557155 117.49127702910958 C 247.83930499557155 113.62528342910959 250.97331139557153 110.49127702910958 254.83930499557152 110.49127702910958 C 258.7052985955715 110.49127702910958 261.8393049955715 113.62528342910959 261.8393049955715 117.49127702910958 C 261.8393049955715 121.35727062910958 258.7052985955715 124.49127702910958 254.83930499557152 124.49127702910958 C 250.97331139557153 124.49127702910958 247.83930499557155 121.35727062910958 247.83930499557155 117.49127702910958 Z" stroke-miterlimit="10"/></g><g transform="translate(-10,-10) scale(1,1)"><path fill="none" stroke="#000000" d="M 261.6786099911431 118.98255405821918 L 248 116" stroke-miterlimit="10"/></g><g transform="translate(-10,-10) scale(1,1)"><path fill="none" stroke="#000000" d="M 256.3305820246811 110.65197203353803 L 253.34802796646196 124.33058202468114" stroke-miterlimit="10"/></g></g></svg>