<svg version="1.1" xmlns="http://www.w3.org/2000/svg" xmlns:xlink="http://www.w3.org/1999/xlink" width="587" height="188"><defs/><g><text fill="#eeeeee" stroke="none" font-family="Arial" font-size="24px" font-style="normal" font-weight="normal" text-decoration="none" x="0" y="0">UNREGISTERED</text><text fill="#eeeeee" stroke="none" font-family="Arial" font-size="24px" font-style="normal" font-weight="normal" text-decoration="none" x="0" y="30">UNREGISTERED</text><text fill="#eeeeee" stroke="none" font-family="Arial" font-size="24px" font-style="normal" font-weight="normal" text-decoration="none" x="0" y="60">UNREGISTERED</text><text fill="#eeeeee" stroke="none" font-family="Arial" font-size="24px" font-style="normal" font-weight="normal" text-decoration="none" x="0" y="90">UNREGISTERED</text><text fill="#eeeeee" stroke="none" font-family="Arial" font-size="24px" font-style="normal" font-weight="normal" text-decoration="none" x="0" y="120">UNREGISTERED</text><text fill="#eeeeee" stroke="none" font-family="Arial" font-size="24px" font-style="normal" font-weight="normal" text-decoration="none" x="0" y="150">UNREGISTERED</text><text fill="#eeeeee" stroke="none" font-family="Arial" font-size="24px" font-style="normal" font-weight="normal" text-decoration="none" x="0" y="180">UNREGISTERED</text><text fill="#eeeeee" stroke="none" font-family="Arial" font-size="24px" font-style="normal" font-weight="normal" text-decoration="none" x="200" y="0">UNREGISTERED</text><text fill="#eeeeee" stroke="none" font-family="Arial" font-size="24px" font-style="normal" font-weight="normal" text-decoration="none" x="200" y="30">UNREGISTERED</text><text fill="#eeeeee" stroke="none" font-family="Arial" font-size="24px" font-style="normal" font-weight="normal" text-decoration="none" x="200" y="60">UNREGISTERED</text><text fill="#eeeeee" stroke="none" font-family="Arial" font-size="24px" font-style="normal" font-weight="normal" text-decoration="none" x="200" y="90">UNREGISTERED</text><text fill="#eeeeee" stroke="none" font-family="Arial" font-size="24px" font-style="normal" font-weight="normal" text-decoration="none" x="200" y="120">UNREGISTERED</text><text fill="#eeeeee" stroke="none" font-family="Arial" font-size="24px" font-style="normal" font-weight="normal" text-decoration="none" x="200" y="150">UNREGISTERED</text><text fill="#eeeeee" stroke="none" font-family="Arial" font-size="24px" font-style="normal" font-weight="normal" text-decoration="none" x="200" y="180">UNREGISTERED</text><text fill="#eeeeee" stroke="none" font-family="Arial" font-size="24px" font-style="normal" font-weight="normal" text-decoration="none" x="400" y="0">UNREGISTERED</text><text fill="#eeeeee" stroke="none" font-family="Arial" font-size="24px" font-style="normal" font-weight="normal" text-decoration="none" x="400" y="30">UNREGISTERED</text><text fill="#eeeeee" stroke="none" font-family="Arial" font-size="24px" font-style="normal" font-weight="normal" text-decoration="none" x="400" y="60">UNREGISTERED</text><text fill="#eeeeee" stroke="none" font-family="Arial" font-size="24px" font-style="normal" font-weight="normal" text-decoration="none" x="400" y="90">UNREGISTERED</text><text fill="#eeeeee" stroke="none" font-family="Arial" font-size="24px" font-style="normal" font-weight="normal" text-decoration="none" x="400" y="120">UNREGISTERED</text><text fill="#eeeeee" stroke="none" font-family="Arial" font-size="24px" font-style="normal" font-weight="normal" text-decoration="none" x="400" y="150">UNREGISTERED</text><text fill="#eeeeee" stroke="none" font-family="Arial" font-size="24px" font-style="normal" font-weight="normal" text-decoration="none" x="400" y="180">UNREGISTERED</text><g transform="translate(-110,-102) scale(1,1)"><rect fill="#C0C0C0" stroke="none" x="471" y="127" width="223" height="160" opacity="0.2"/></g><g transform="translate(-110,-102) scale(1,1)"><rect fill="#ffffff" stroke="none" x="464" y="120" width="223" height="160"/></g><g transform="translate(-110,-102) scale(1,1)"><path fill="none" stroke="#000000" d="M 464 120 L 687 120 L 687 280 L 464 280 L 464 120 Z Z" stroke-miterlimit="10"/></g><g transform="translate(-110,-102) scale(1,1)"><path fill="none" stroke="#000000" d="M 464 145 L 687 145" stroke-miterlimit="10"/></g><g transform="translate(-110,-102) scale(1,1)"><path fill="none" stroke="#000000" d="M 464 213 L 687 213" stroke-miterlimit="10"/></g><g transform="translate(-110,-102) scale(1,1)"><g><path fill="none" stroke="none"/><text fill="#000000" stroke="none" font-family="Arial" font-size="13px" font-style="normal" font-weight="bold" text-decoration="none" x="549.5" y="137.471923828125">Account</text></g></g><g transform="translate(-110,-102) scale(1,1)"><g><path fill="none" stroke="none"/><text fill="#000000" stroke="none" font-family="Arial" font-size="13px" font-style="normal" font-weight="normal" text-decoration="none" x="469" y="160.7099609375">+AccountCode: String</text></g></g><g transform="translate(-110,-102) scale(1,1)"><g><path fill="none" stroke="none"/><text fill="#000000" stroke="none" font-family="Arial" font-size="13px" font-style="normal" font-weight="normal" text-decoration="none" x="469" y="175.7099609375">+Name: String</text></g></g><g transform="translate(-110,-102) scale(1,1)"><g><path fill="none" stroke="none"/><text fill="#000000" stroke="none" font-family="Arial" font-size="13px" font-style="normal" font-weight="normal" text-decoration="none" x="469" y="190.7099609375">+Password: String</text></g></g><g transform="translate(-110,-102) scale(1,1)"><g><path fill="none" stroke="none"/><text fill="#000000" stroke="none" font-family="Arial" font-size="13px" font-style="normal" font-weight="normal" text-decoration="none" x="469" y="205.7099609375">+LoginAt: DateTime</text></g></g><g transform="translate(-110,-102) scale(1,1)"><rect fill="#C0C0C0" stroke="none" x="127" y="119" width="199" height="102" opacity="0.2"/></g><g transform="translate(-110,-102) scale(1,1)"><rect fill="#ffffff" stroke="none" x="120" y="112" width="199" height="102"/></g><g transform="translate(-110,-102) scale(1,1)"><path fill="none" stroke="#000000" d="M 120 112 L 319 112 L 319 214 L 120 214 L 120 112 Z Z" stroke-miterlimit="10"/></g><g transform="translate(-110,-102) scale(1,1)"><path fill="none" stroke="#000000" d="M 120 137 L 319 137" stroke-miterlimit="10"/></g><g transform="translate(-110,-102) scale(1,1)"><path fill="none" stroke="#000000" d="M 120 205 L 319 205" stroke-miterlimit="10"/></g><g transform="translate(-110,-102) scale(1,1)"><g><path fill="none" stroke="none"/><text fill="#000000" stroke="none" font-family="Arial" font-size="13px" font-style="normal" font-weight="bold" text-decoration="none" x="185.905029296875" y="129.7099609375">BaseEntity</text></g></g><g transform="translate(-110,-102) scale(1,1)"><g><path fill="none" stroke="none"/><text fill="#000000" stroke="none" font-family="Arial" font-size="13px" font-style="normal" font-weight="normal" text-decoration="none" x="125" y="152.7099609375">+CreatedAt: DateTime</text></g></g><g transform="translate(-110,-102) scale(1,1)"><g><path fill="none" stroke="none"/><text fill="#000000" stroke="none" font-family="Arial" font-size="13px" font-style="normal" font-weight="normal" text-decoration="none" x="125" y="167.7099609375">+CreatedBy: Integer</text></g></g><g transform="translate(-110,-102) scale(1,1)"><g><path fill="none" stroke="none"/><text fill="#000000" stroke="none" font-family="Arial" font-size="13px" font-style="normal" font-weight="normal" text-decoration="none" x="125" y="182.7099609375">+UpdatedAt: DateTime</text></g></g><g transform="translate(-110,-102) scale(1,1)"><g><path fill="none" stroke="none"/><text fill="#000000" stroke="none" font-family="Arial" font-size="13px" font-style="normal" font-weight="normal" text-decoration="none" x="125" y="197.7099609375">+UpdateBy: Integer</text></g></g><g transform="translate(-110,-102) scale(1,1)"><path fill="none" stroke="#000000" d="M 464 208 L 319 208" stroke-miterlimit="10"/></g><g transform="translate(-110,-102) scale(1,1)"><path fill="#FFFFFF" stroke="none" d="M 339.3253497152483 199.58096448796803 L 319 208 L 339.3253497152483 216.41903551203197"/></g><g transform="translate(-110,-102) scale(1,1)"><path fill="none" stroke="#000000" d="M 339.3253497152483 199.58096448796803 L 319 208 L 339.3253497152483 216.41903551203197 L 339.3253497152483 199.58096448796803" stroke-miterlimit="10"/></g></g></svg>